<svg width="723" height="477" viewBox="0 0 723 477" fill="none" xmlns="http://www.w3.org/2000/svg">
<path opacity="0.4" d="M648.675 428.022C616.626 453.879 582.833 460.661 532.688 471.032C448.356 488.475 401.376 461.486 313.23 454C246.65 448.346 221.445 481.781 171.73 454C106.877 417.76 125.646 365.196 108.129 312.432C92.8382 266.371 41.441 250.972 51.2298 190.122C67.23 90.6617 173.994 148.121 250.378 118.887C289.209 104.026 291.407 77.1862 335.73 70.2148C370.503 64.7456 430.256 89.4656 466.098 90.6617C517.754 92.3854 526.076 38.0218 591.73 62.2148C651.721 84.3213 643.543 120.527 683.691 155.715C722.88 190.064 722.33 220.273 722.73 262.215C723.07 297.911 708.106 308.264 683.691 340.658C659.658 372.544 683.328 400.065 648.675 428.022Z" fill="url(#paint0_linear_1489_2)"/>
<g opacity="0.9">
<path d="M599.028 385.462C566.966 412.253 533.16 419.28 482.995 430.026C398.631 448.099 351.632 420.135 263.451 412.378C196.845 406.519 171.63 441.163 121.895 412.378C57.0172 374.829 70.6402 329.67 53.1171 275C37.8199 227.274 -8.44491 202.015 1.3478 138.968C11.9047 71 89.7031 86.79 166.117 56.5C204.964 41.1018 241.619 21.9516 285.96 14.7284C320.746 9.06151 380.523 34.6746 416.379 35.9139C468.055 37.6999 476.381 -18.6277 542.06 6.43936C602.075 29.3445 593.894 66.8577 634.057 103.317C673.262 138.907 672.712 170.208 673.112 213.665C673.452 250.65 658.482 261.377 634.057 294.942C610.015 327.98 633.695 356.495 599.028 385.462Z" fill="url(#paint1_linear_1489_2)"/>
<path opacity="0.2" d="M615.028 405.273C582.966 431.634 549.16 438.548 498.995 449.122C414.631 466.904 367.632 439.39 279.451 431.758C212.845 425.993 187.63 460.08 137.895 431.758C73.0171 394.812 91.7928 341.223 74.2698 287.431C58.9725 240.471 7.55513 224.772 17.3478 162.737C33.3543 61.3373 98.703 113.804 175.118 84.0005C213.964 68.8495 257.619 47.5992 301.96 40.4919C336.746 34.916 396.523 60.1179 432.379 61.3373C484.055 63.0946 492.381 7.67133 558.06 32.336C618.075 54.8733 609.894 91.7843 650.057 127.659C689.262 162.677 688.712 193.475 689.112 236.234C689.452 272.626 674.482 283.181 650.057 316.206C626.016 348.714 649.695 376.771 615.028 405.273Z" fill="url(#paint2_radial_1489_2)"/>
</g>
<g filter="url(#filter0_d_1489_2)">
<rect x="588.253" y="205" width="19.7474" height="62.2769" fill="white"/>
<ellipse cx="118.93" cy="223.969" rx="9.87372" ry="11" fill="white"/>
<ellipse cx="598.126" cy="188" rx="9.87372" ry="11" fill="white"/>
<rect x="82" y="179" width="40.3925" height="22" fill="white"/>
<rect x="82" y="246" width="40.5839" height="22" fill="white"/>
<path fill-rule="evenodd" clip-rule="evenodd" d="M121.496 268C143.803 268 161.887 248.077 161.887 223.5C161.887 198.923 143.803 179 121.496 179C121.496 179 121.495 187.976 121.495 201.005C121.644 201.002 121.794 201 121.944 201C133.098 201 142.14 211.074 142.14 223.5C142.14 235.926 133.098 246 121.944 246C121.794 246 121.644 245.998 121.495 245.995C121.495 259.326 121.496 268 121.496 268Z" fill="white"/>
<ellipse cx="390.751" cy="225.858" rx="11" ry="9.87372" transform="rotate(-90 390.751 225.858)" fill="white"/>
<rect x="350.386" y="267" width="45" height="19.7474" transform="rotate(-90 350.386 267)" fill="white"/>
<rect x="410.526" y="267" width="45.2133" height="19.7474" transform="rotate(-90 410.526 267)" fill="white"/>
<path fill-rule="evenodd" clip-rule="evenodd" d="M430.273 222.999C430.273 198.147 412.39 178 390.329 178C368.269 178 350.386 198.147 350.386 222.999C350.386 222.999 358.442 223 370.138 223C370.135 222.834 370.133 222.667 370.133 222.5C370.133 210.074 379.175 200 390.329 200C401.483 200 410.526 210.074 410.526 222.5C410.526 222.667 410.524 222.834 410.521 223C422.487 223 430.273 222.999 430.273 222.999Z" fill="white"/>
<rect x="252.546" y="181" width="45" height="19.7474" transform="rotate(90 252.546 181)" fill="white"/>
<rect x="192.406" y="181" width="45.2133" height="19.7474" transform="rotate(90 192.406 181)" fill="white"/>
<path fill-rule="evenodd" clip-rule="evenodd" d="M172.659 225.001C172.659 249.853 190.542 270 212.602 270C234.663 270 252.546 249.853 252.546 225.001C252.546 225.001 244.489 225 232.794 225C232.797 225.166 232.799 225.333 232.799 225.5C232.799 237.927 223.756 248 212.602 248C201.448 248 192.406 237.927 192.406 225.5C192.406 225.333 192.408 225.166 192.411 225C180.445 225 172.659 225.001 172.659 225.001Z" fill="white"/>
<rect x="439.249" y="267" width="45" height="19.7474" transform="rotate(-90 439.249 267)" fill="white"/>
<rect x="499.389" y="267" width="45.2133" height="19.7474" transform="rotate(-90 499.389 267)" fill="white"/>
<path fill-rule="evenodd" clip-rule="evenodd" d="M519.137 223C519.137 198.147 501.253 178 479.193 178C457.133 178 439.249 198.147 439.249 223C439.249 223 447.306 223 459.001 223C458.998 222.834 458.997 222.667 458.997 222.5C458.997 210.074 468.039 200 479.193 200C490.347 200 499.389 210.074 499.389 222.5C499.389 222.667 499.387 222.834 499.384 223C511.351 223 519.137 223 519.137 223Z" fill="white"/>
<rect x="499.389" y="267" width="45" height="19.7474" transform="rotate(-90 499.389 267)" fill="white"/>
<rect x="559.529" y="267" width="45.2133" height="19.7474" transform="rotate(-90 559.529 267)" fill="white"/>
<path fill-rule="evenodd" clip-rule="evenodd" d="M579.276 222.999C579.276 198.147 561.393 178 539.333 178C517.272 178 499.389 198.147 499.389 222.999C499.389 222.999 507.446 223 519.141 223C519.138 222.834 519.137 222.667 519.137 222.5C519.137 210.074 528.179 200 539.333 200C550.487 200 559.529 210.074 559.529 222.5C559.529 222.667 559.527 222.834 559.524 223C571.491 223 579.276 222.999 579.276 222.999Z" fill="white"/>
<rect x="341.41" y="268" width="40.3925" height="22" transform="rotate(-180 341.41 268)" fill="white"/>
<rect x="341.41" y="201" width="40.5839" height="22" transform="rotate(-180 341.41 201)" fill="white"/>
<path fill-rule="evenodd" clip-rule="evenodd" d="M301.914 179C279.606 179 261.522 198.923 261.522 223.5C261.522 248.077 279.606 268 301.914 268C301.914 268 301.914 259.024 301.914 245.995C301.765 245.998 301.616 246 301.466 246C290.312 246 281.27 235.926 281.27 223.5C281.27 211.074 290.312 201 301.466 201C301.616 201 301.765 201.002 301.914 201.005C301.914 187.674 301.914 179 301.914 179Z" fill="white"/>
</g>
<defs>
<filter id="filter0_d_1489_2" x="78" y="177" width="534" height="101" filterUnits="userSpaceOnUse" color-interpolation-filters="sRGB">
<feFlood flood-opacity="0" result="BackgroundImageFix"/>
<feColorMatrix in="SourceAlpha" type="matrix" values="0 0 0 0 0 0 0 0 0 0 0 0 0 0 0 0 0 0 127 0" result="hardAlpha"/>
<feOffset dy="4"/>
<feGaussianBlur stdDeviation="2"/>
<feComposite in2="hardAlpha" operator="out"/>
<feColorMatrix type="matrix" values="0 0 0 0 0 0 0 0 0 0 0 0 0 0 0 0 0 0 0.25 0"/>
<feBlend mode="normal" in2="BackgroundImageFix" result="effect1_dropShadow_1489_2"/>
<feBlend mode="normal" in="SourceGraphic" in2="effect1_dropShadow_1489_2" result="shape"/>
</filter>
<linearGradient id="paint0_linear_1489_2" x1="142.512" y1="4.89724" x2="373.106" y2="634.391" gradientUnits="userSpaceOnUse">
<stop stop-color="#2BC398"/>
<stop offset="1" stop-color="#318DB5"/>
</linearGradient>
<linearGradient id="paint1_linear_1489_2" x1="92.666" y1="-52.9489" x2="338.014" y2="593.723" gradientUnits="userSpaceOnUse">
<stop stop-color="#2BC398"/>
<stop offset="1" stop-color="#318DB5"/>
</linearGradient>
<radialGradient id="paint2_radial_1489_2" cx="0" cy="0" r="1" gradientUnits="userSpaceOnUse" gradientTransform="translate(364.481 111.943) rotate(46.3798) scale(370.813 420.948)">
<stop stop-color="#2BC398"/>
<stop offset="0.585867" stop-color="#2DB59F"/>
<stop offset="1" stop-color="#318DB5"/>
</radialGradient>
</defs>
</svg>
